<svg width="15" height="15" viewBox="0 0 15 15" fill="none" xmlns="http://www.w3.org/2000/svg">
<path d="M13.75 10.1188C13.75 12.3938 12.3938 13.75 10.1188 13.75H9.375C9.03125 13.75 8.75 13.4688 8.75 13.125V9.51876C8.75 9.35001 8.88749 9.20626 9.05624 9.20626L10.1562 9.18751C10.2437 9.18126 10.3188 9.11876 10.3375 9.03126L10.5563 7.83751C10.575 7.72501 10.4875 7.61875 10.3687 7.61875L9.03749 7.6375C8.86249 7.6375 8.72501 7.50001 8.71876 7.33126L8.69375 5.8C8.69375 5.7 8.77499 5.61251 8.88124 5.61251L10.3812 5.5875C10.4875 5.5875 10.5688 5.50626 10.5688 5.40001L10.5437 3.89999C10.5437 3.79374 10.4625 3.7125 10.3563 3.7125L8.66875 3.73751C7.63125 3.75626 6.80626 4.60625 6.82501 5.64375L6.85625 7.3625C6.8625 7.5375 6.72501 7.67501 6.55001 7.68126L5.8 7.69375C5.69375 7.69375 5.61251 7.77499 5.61251 7.88124L5.63126 9.06876C5.63126 9.17501 5.7125 9.25625 5.81875 9.25625L6.56876 9.24376C6.74376 9.24376 6.88124 9.38125 6.88749 9.55L6.94374 13.1125C6.94999 13.4625 6.66874 13.75 6.31874 13.75H4.88125C2.60625 13.75 1.25 12.3937 1.25 10.1125V4.88125C1.25 2.60625 2.60625 1.25 4.88125 1.25H10.1188C12.3938 1.25 13.75 2.60625 13.75 4.88125V10.1188Z" fill="#1560BD"/>
</svg>
