<svg width="15" height="15" viewBox="0 0 15 15" fill="none" xmlns="http://www.w3.org/2000/svg">
<path d="M10.5 1.5H4.5C2.85015 1.5 1.5 2.84955 1.5 4.5V10.5C1.5 12.1498 2.85015 13.5 4.5 13.5H10.5C12.1499 13.5 13.5 12.1498 13.5 10.5V4.5C13.5 2.84955 12.1499 1.5 10.5 1.5ZM7.5 9.9999C6.1191 9.9999 4.99995 8.8803 4.99995 7.5C4.99995 6.1191 6.1191 4.99995 7.5 4.99995C8.8803 4.99995 10.0001 6.1191 10.0001 7.5C10.0001 8.8803 8.8803 9.9999 7.5 9.9999ZM10.7501 4.99995C10.3355 4.99995 10.0001 4.6641 10.0001 4.24995C10.0001 3.8358 10.3355 3.49995 10.7501 3.49995C11.1647 3.49995 11.5001 3.8358 11.5001 4.24995C11.5001 4.6641 11.1647 4.99995 10.7501 4.99995Z" fill="#1560BD"/>
</svg>
